<svg width="30" height="30" viewBox="0 0 30 30" fill="none" xmlns="http://www.w3.org/2000/svg">
<path fill-rule="evenodd" clip-rule="evenodd" d="M15 3.85938C18.625 3.85938 19.0625 3.875 20.5 3.9375C21.8281 4 22.5469 4.21875 23.0313 4.40625C23.6719 4.65625 24.125 4.95312 24.5938 5.42188C25.0625 5.89062 25.3594 6.34375 25.6094 6.98438C25.7969 7.46875 26.0156 8.1875 26.0781 9.51562C26.1406 10.9531 26.1563 11.375 26.1563 15.0156C26.1563 18.6562 26.1406 19.0781 26.0781 20.5156C26.0156 21.8438 25.7969 22.5625 25.6094 23.0469C25.3594 23.6875 25.0625 24.1406 24.5938 24.6094C24.125 25.0781 23.6719 25.375 23.0313 25.625C22.5469 25.8125 21.8281 26.0312 20.5 26.0938C19.0625 26.1562 18.6406 26.1719 15 26.1719C11.3594 26.1719 10.9375 26.1562 9.5 26.0938C8.17188 26.0312 7.45313 25.8125 6.96875 25.625C6.32813 25.375 5.875 25.0781 5.40625 24.6094C4.9375 24.1406 4.64063 23.6875 4.39063 23.0469C4.20313 22.5625 3.98438 21.8438 3.92188 20.5156C3.85938 19.0781 3.84375 18.6562 3.84375 15.0156C3.84375 11.375 3.85938 10.9531 3.92188 9.51562C3.98438 8.1875 4.20313 7.46875 4.39063 6.98438C4.64063 6.34375 4.9375 5.89062 5.40625 5.42188C5.875 4.95312 6.32813 4.65625 6.96875 4.40625C7.45313 4.21875 8.17188 4 9.5 3.9375C10.9375 3.875 11.375 3.85938 15 3.85938ZM15 1.40625C11.3125 1.40625 10.8438 1.42187 9.39063 1.48438C7.9375 1.54688 6.95313 1.78125 6.09375 2.10938C5.20313 2.45312 4.4375 2.92188 3.6875 3.67188C2.9375 4.42188 2.46875 5.1875 2.125 6.07812C1.78125 6.9375 1.5625 7.9375 1.5 9.375C1.42188 10.8438 1.40625 11.3125 1.40625 15C1.40625 18.6875 1.42188 19.1562 1.48438 20.6094C1.54688 22.0625 1.78125 23.0469 2.10938 23.9062C2.45313 24.7969 2.92188 25.5625 3.67188 26.3125C4.42188 27.0625 5.1875 27.5312 6.07813 27.875C6.9375 28.2188 7.9375 28.4375 9.375 28.5C10.8281 28.5625 11.2813 28.5781 14.9844 28.5781C18.6875 28.5781 19.1406 28.5625 20.5938 28.5C22.0469 28.4375 23.0313 28.2031 23.8906 27.875C24.7813 27.5312 25.5469 27.0625 26.2969 26.3125C27.0469 25.5625 27.5156 24.7969 27.8594 23.9062C28.2031 23.0469 28.4219 22.0469 28.4844 20.6094C28.5469 19.1562 28.5625 18.7031 28.5625 15C28.5625 11.2969 28.5469 10.8438 28.4844 9.39062C28.4219 7.9375 28.1875 6.95312 27.8594 6.09375C27.5156 5.20312 27.0469 4.4375 26.2969 3.6875C25.5469 2.9375 24.7813 2.46875 23.8906 2.125C23.0313 1.78125 22.0313 1.5625 20.5938 1.5C19.1563 1.42188 18.6875 1.40625 15 1.40625ZM15 8.01562C11.1406 8.01562 8.01563 11.1406 8.01563 15C8.01563 18.8594 11.1406 21.9844 15 21.9844C18.8594 21.9844 21.9844 18.8594 21.9844 15C21.9844 11.1406 18.8594 8.01562 15 8.01562ZM15 19.5312C12.5 19.5312 10.4688 17.5 10.4688 15C10.4688 12.5 12.5 10.4688 15 10.4688C17.5 10.4688 19.5313 12.5 19.5313 15C19.5313 17.5 17.5 19.5312 15 19.5312ZM23.875 7.75C23.875 8.64746 23.1475 9.375 22.25 9.375C21.3525 9.375 20.625 8.64746 20.625 7.75C20.625 6.85253 21.3525 6.12499 22.25 6.12499C23.1475 6.12499 23.875 6.85253 23.875 7.75Z" fill="#C3C5CB"/>
</svg>
