<svg width="28" height="20" viewBox="0 0 28 20" fill="none" xmlns="http://www.w3.org/2000/svg">
<path d="M27.1719 3.34375C26.8594 2.15625 25.9219 1.21875 24.7344 0.890625C22.5937 0.3125 14 0.3125 14 0.3125C14 0.3125 5.40625 0.3125 3.25 0.890625C2.0625 1.20313 1.14062 2.14063 0.8125 3.34375C0.25 5.5 0.25 10 0.25 10C0.25 10 0.25 14.5 0.828125 16.6563C1.14062 17.8438 2.07812 18.7813 3.26562 19.1094C5.40625 19.6875 14 19.6875 14 19.6875C14 19.6875 22.5937 19.6875 24.75 19.1094C25.9375 18.7969 26.8594 17.8594 27.1875 16.6563C27.75 14.5 27.75 10 27.75 10C27.75 10 27.75 5.5 27.1719 3.34375ZM11.1875 14.0938V5.90625L18.375 10L11.1875 14.0938Z" fill="#C3C5CB"/>
</svg>
